G04 start of page 11 for group -4014 idx -4014 *
G04 Title: (unknown), bottompaste *
G04 Creator: pcb 4.2.2 *
G04 CreationDate: Tue May 11 21:17:39 2021 UTC *
G04 For: thomasc *
G04 Format: Gerber/RS-274X *
G04 PCB-Dimensions (mil): 5250.00 1500.00 *
G04 PCB-Coordinate-Origin: lower left *
%MOIN*%
%FSLAX25Y25*%
%LNBOTTOMPASTE*%
%ADD56C,0.0001*%
G54D56*G36*
X287500Y48000D02*X282500D01*
Y40000D01*
X287500D01*
Y48000D01*
G37*
G36*
Y60000D02*X282500D01*
Y52000D01*
X287500D01*
Y60000D01*
G37*
G36*
Y73000D02*X282500D01*
Y65000D01*
X287500D01*
Y73000D01*
G37*
G36*
Y85000D02*X282500D01*
Y77000D01*
X287500D01*
Y85000D01*
G37*
G36*
X362500Y48000D02*X357500D01*
Y40000D01*
X362500D01*
Y48000D01*
G37*
G36*
Y60000D02*X357500D01*
Y52000D01*
X362500D01*
Y60000D01*
G37*
G36*
Y73000D02*X357500D01*
Y65000D01*
X362500D01*
Y73000D01*
G37*
G36*
Y85000D02*X357500D01*
Y77000D01*
X362500D01*
Y85000D01*
G37*
G36*
X437500Y48000D02*X432500D01*
Y40000D01*
X437500D01*
Y48000D01*
G37*
G36*
Y60000D02*X432500D01*
Y52000D01*
X437500D01*
Y60000D01*
G37*
G36*
Y73000D02*X432500D01*
Y65000D01*
X437500D01*
Y73000D01*
G37*
G36*
Y85000D02*X432500D01*
Y77000D01*
X437500D01*
Y85000D01*
G37*
M02*
