G04 start of page 2 for group 0 idx 0 *
G04 Title: (unknown), top *
G04 Creator: pcb 4.2.2 *
G04 CreationDate: Tue May 11 21:17:39 2021 UTC *
G04 For: thomasc *
G04 Format: Gerber/RS-274X *
G04 PCB-Dimensions (mil): 5250.00 1500.00 *
G04 PCB-Coordinate-Origin: lower left *
%MOIN*%
%FSLAX25Y25*%
%LNTOP*%
%ADD22C,0.1250*%
%ADD21C,0.1360*%
%ADD20C,0.0730*%
%ADD19C,0.0420*%
%ADD18C,0.0280*%
%ADD17C,0.0500*%
%ADD16C,0.2000*%
%ADD15C,0.1700*%
%ADD14C,0.0001*%
%ADD13C,0.1100*%
%ADD12C,0.0700*%
%ADD11C,0.0100*%
G54D11*X115000Y118500D02*X125000D01*
Y106500D02*Y95000D01*
X140000Y105000D02*X135000D01*
X132500Y107500D01*
X75000Y106500D02*Y95000D01*
X60000Y105000D02*X65000D01*
X85000D02*X90000D01*
X92500Y107500D01*
X115000Y105000D02*X107500D01*
X100000Y112500D01*
X65000Y105000D02*X67500Y107500D01*
X50000Y118500D02*X60000D01*
X75000D02*X85000D01*
X92500Y132500D02*X100000Y140000D01*
Y132500D02*X105000Y137500D01*
X145000Y60000D02*X67500D01*
X62500Y65000D01*
X145000Y50000D02*X67500D01*
X62500Y55000D01*
X145000Y40000D02*X67500D01*
X62500Y45000D01*
X50000Y106500D02*Y100000D01*
X67500Y107500D02*Y132500D01*
X77500Y142500D01*
X92500Y107500D02*Y132500D01*
X100000Y112500D02*Y132500D01*
X50000Y100000D02*X55000Y95000D01*
X132500Y107500D02*Y130000D01*
X137500Y135000D01*
X62500Y35000D02*X212500D01*
X175000Y40000D02*Y35000D01*
X187500Y62500D02*Y95000D01*
X55000D02*X220000D01*
X200000Y106500D02*Y95000D01*
X140000Y118500D02*X150000D01*
X165000Y80000D02*X152500D01*
X150000Y106500D02*Y95000D01*
X210000Y105000D02*X207500Y107500D01*
X77500Y142500D02*X227500D01*
X230000Y145000D01*
X100000Y140000D02*X230000D01*
X105000Y137500D02*X232500D01*
X137500Y135000D02*X232500D01*
X182500Y132500D02*X230000D01*
X232500Y130000D01*
X210000D02*X227500D01*
X190000Y105000D02*X185000D01*
X182500Y107500D01*
Y122500D01*
X177500Y127500D01*
X182500Y132500D01*
X232500Y130000D02*Y115000D01*
X215000Y105000D02*X210000D01*
X207500Y127500D02*X210000Y130000D01*
X227500D02*X230000Y127500D01*
Y110000D01*
X207500Y107500D02*Y127500D01*
X152500Y80000D02*X150000Y77500D01*
X175000Y80000D02*X170000Y75000D01*
X155000D01*
X152500Y72500D01*
X165000Y70000D02*X157500D01*
X155000Y67500D01*
X170000Y55000D02*X202500D01*
X212500Y65000D01*
X175000Y50000D02*X207500D01*
X170000Y45000D02*X212500D01*
X207500Y50000D02*X212500Y55000D01*
X190000Y118500D02*X200000D01*
X215000D02*X225000D01*
X220000Y95000D02*X225000Y100000D01*
Y106500D01*
X150000Y77500D02*Y65000D01*
X152500Y72500D02*Y57500D01*
X150000Y65000D02*X145000Y60000D01*
X152500Y57500D02*X145000Y50000D01*
X155000Y67500D02*Y50000D01*
X145000Y40000D01*
X165000Y50000D02*X170000Y55000D01*
X165000Y40000D02*X170000Y45000D01*
X165000Y30000D02*X170000Y25000D01*
X180000D02*X197500Y7500D01*
X175000Y20000D02*X190000Y5000D01*
X230000Y145000D02*X270000D01*
X230000Y140000D02*X232500Y142500D01*
Y137500D02*X235000Y140000D01*
X232500Y135000D02*X235000Y132500D01*
X232500Y142500D02*X267500D01*
X235000Y140000D02*X265000D01*
X235000Y132500D02*Y117500D01*
X242500Y110000D01*
X232500Y115000D02*X240000Y107500D01*
X230000Y110000D02*X240000Y100000D01*
Y107500D02*X262500D01*
X242500Y110000D02*X260000D01*
X240000Y100000D02*X260000D01*
X277500Y117500D01*
X170000Y25000D02*X180000D01*
X175000Y30000D02*X227500D01*
X197500Y7500D02*X265000D01*
X227500Y30000D02*X270000Y72500D01*
X190000Y5000D02*X270000D01*
X265000Y7500D02*X270000Y12500D01*
Y45000D01*
X287500Y62500D01*
X270000Y5000D02*X275000Y10000D01*
X270000Y145000D02*X272500Y142500D01*
X267500D02*X272500Y137500D01*
X265000Y140000D02*X272500Y132500D01*
X260000Y110000D02*X277500Y127500D01*
X272500Y142500D02*X300000D01*
X272500Y137500D02*X325000D01*
X272500Y132500D02*X375000D01*
X277500Y127500D02*X400000D01*
X262500Y107500D02*X277500Y122500D01*
X450000D01*
X277500Y117500D02*X475000D01*
X480000Y95000D02*X485000Y100000D01*
X492500D01*
X480000Y95000D02*Y72500D01*
X485000Y80000D02*Y87500D01*
X487500Y90000D01*
X492500D01*
X287500Y62500D02*X450000D01*
X270000Y72500D02*X500000D01*
X275000Y10000D02*X470000D01*
X487500Y42500D02*X497500D01*
X500000Y45000D01*
Y53750D01*
X482500Y65000D02*X485000Y62500D01*
X491250D01*
X482500Y72500D02*Y65000D01*
X470000Y10000D02*X480000Y20000D01*
Y35000D01*
X487500Y42500D01*
G54D12*X62500Y45000D03*
X137500D03*
G54D13*X450000Y44000D03*
X375000D03*
X300000D03*
X287500Y25000D03*
X300000Y62500D03*
Y81000D03*
G54D14*G36*
X59000Y68500D02*Y61500D01*
X66000D01*
Y68500D01*
X59000D01*
G37*
G54D15*X59500Y81000D03*
G54D16*X25000Y125000D03*
G54D12*X62500Y55000D03*
G54D14*G36*
X134000Y68500D02*Y61500D01*
X141000D01*
Y68500D01*
X134000D01*
G37*
G54D12*X137500Y55000D03*
G54D15*X134500Y81000D03*
G54D12*X62500Y35000D03*
X137500D03*
X175000Y110000D03*
G54D14*G36*
X161500Y113500D02*Y106500D01*
X168500D01*
Y113500D01*
X161500D01*
G37*
G54D12*X165000Y100000D03*
Y90000D03*
X175000Y100000D03*
Y90000D03*
G54D13*X462500Y100000D03*
X437500D03*
X450000Y62500D03*
Y81000D03*
X387500Y100000D03*
X362500D03*
X312500D03*
X287500D03*
X375000Y62500D03*
Y81000D03*
X462500Y25000D03*
X437500D03*
X387500D03*
X362500D03*
X312500D03*
G54D16*X500000Y125000D03*
Y25000D03*
G54D15*X59500Y19000D03*
X134500D03*
G54D12*X175000Y80000D03*
X165000D03*
X175000Y70000D03*
X165000D03*
X175000Y60000D03*
X165000D03*
Y20000D03*
G54D16*X25000Y25000D03*
G54D14*G36*
X209000Y68500D02*Y61500D01*
X216000D01*
Y68500D01*
X209000D01*
G37*
G54D12*X212500Y55000D03*
Y45000D03*
Y35000D03*
G54D15*X209500Y19000D03*
Y81000D03*
G54D12*X175000Y50000D03*
X165000D03*
X175000Y40000D03*
X165000D03*
X175000Y30000D03*
X165000D03*
X175000Y20000D03*
G54D16*X250000Y125000D03*
Y25000D03*
G54D14*G36*
X227500Y122500D02*X222500D01*
Y114500D01*
X227500D01*
Y122500D01*
G37*
G36*
Y110500D02*X222500D01*
Y102500D01*
X227500D01*
Y110500D01*
G37*
G36*
X217500D02*X212500D01*
Y102500D01*
X217500D01*
Y110500D01*
G37*
G36*
Y122500D02*X212500D01*
Y114500D01*
X217500D01*
Y122500D01*
G37*
G36*
X202500D02*X197500D01*
Y114500D01*
X202500D01*
Y122500D01*
G37*
G36*
Y110500D02*X197500D01*
Y102500D01*
X202500D01*
Y110500D01*
G37*
G36*
X192500D02*X187500D01*
Y102500D01*
X192500D01*
Y110500D01*
G37*
G36*
Y122500D02*X187500D01*
Y114500D01*
X192500D01*
Y122500D01*
G37*
G36*
X127500D02*X122500D01*
Y114500D01*
X127500D01*
Y122500D01*
G37*
G36*
Y110500D02*X122500D01*
Y102500D01*
X127500D01*
Y110500D01*
G37*
G36*
X117500D02*X112500D01*
Y102500D01*
X117500D01*
Y110500D01*
G37*
G36*
Y122500D02*X112500D01*
Y114500D01*
X117500D01*
Y122500D01*
G37*
G36*
X152500D02*X147500D01*
Y114500D01*
X152500D01*
Y122500D01*
G37*
G36*
X142500D02*X137500D01*
Y114500D01*
X142500D01*
Y122500D01*
G37*
G36*
X152500Y110500D02*X147500D01*
Y102500D01*
X152500D01*
Y110500D01*
G37*
G36*
X142500D02*X137500D01*
Y102500D01*
X142500D01*
Y110500D01*
G37*
G36*
X52500Y122500D02*X47500D01*
Y114500D01*
X52500D01*
Y122500D01*
G37*
G36*
Y110500D02*X47500D01*
Y102500D01*
X52500D01*
Y110500D01*
G37*
G36*
X77500Y122500D02*X72500D01*
Y114500D01*
X77500D01*
Y122500D01*
G37*
G36*
Y110500D02*X72500D01*
Y102500D01*
X77500D01*
Y110500D01*
G37*
G36*
X62500D02*X57500D01*
Y102500D01*
X62500D01*
Y110500D01*
G37*
G36*
Y122500D02*X57500D01*
Y114500D01*
X62500D01*
Y122500D01*
G37*
G36*
X87500Y110500D02*X82500D01*
Y102500D01*
X87500D01*
Y110500D01*
G37*
G36*
Y122500D02*X82500D01*
Y114500D01*
X87500D01*
Y122500D01*
G37*
G36*
X503000Y58000D02*X497000D01*
Y49500D01*
X503000D01*
Y58000D01*
G37*
G36*
X488000Y64500D02*Y60500D01*
X494500D01*
Y64500D01*
X488000D01*
G37*
G36*
X503000Y75500D02*X497000D01*
Y67000D01*
X503000D01*
Y75500D01*
G37*
G36*
X490000Y102500D02*Y97500D01*
X498000D01*
Y102500D01*
X490000D01*
G37*
G36*
X502000D02*Y97500D01*
X510000D01*
Y102500D01*
X502000D01*
G37*
G36*
X490000Y92500D02*Y87500D01*
X498000D01*
Y92500D01*
X490000D01*
G37*
G36*
X502000D02*Y87500D01*
X510000D01*
Y92500D01*
X502000D01*
G37*
G54D17*X187500Y62500D03*
X92500Y132500D03*
Y142500D03*
X132500Y130000D03*
X100000Y112500D03*
X177500Y127500D03*
X275000Y72500D03*
X300000Y142500D03*
X325000Y137500D03*
X350000Y72500D03*
X425000D03*
X375000Y132500D03*
X400000Y127500D03*
X450000Y122500D03*
X240000Y100000D03*
X475000Y117500D03*
X485000Y80000D03*
G54D18*G54D19*G54D20*G54D19*G54D21*G54D22*G54D19*G54D21*G54D19*G54D20*G54D22*G54D21*G54D19*G54D22*G54D19*G54D21*G54D19*G54D22*M02*
