G04 start of page 12 for group -3984 idx -3984 *
G04 Title: (unknown), fab *
G04 Creator: pcb 4.2.2 *
G04 CreationDate: Tue May 11 21:17:39 2021 UTC *
G04 For: thomasc *
G04 Format: Gerber/RS-274X *
G04 PCB-Dimensions (mil): 5250.00 1500.00 *
G04 PCB-Coordinate-Origin: lower left *
%MOIN*%
%FSLAX25Y25*%
%LNFAB*%
%ADD60C,0.0100*%
%ADD59C,0.0075*%
%ADD58C,0.0060*%
%ADD57R,0.0080X0.0080*%
G54D57*X207900Y20600D02*X211100D01*
X207900D02*Y17400D01*
X211100D01*
Y20600D02*Y17400D01*
X207900Y82600D02*X211100D01*
X207900D02*Y79400D01*
X211100D01*
Y82600D02*Y79400D01*
X57900Y20600D02*X61100D01*
X57900D02*Y17400D01*
X61100D01*
Y20600D02*Y17400D01*
X57900Y82600D02*X61100D01*
X57900D02*Y79400D01*
X61100D01*
Y82600D02*Y79400D01*
X132900Y20600D02*X136100D01*
X132900D02*Y17400D01*
X136100D01*
Y20600D02*Y17400D01*
X132900Y82600D02*X136100D01*
X132900D02*Y79400D01*
X136100D01*
Y82600D02*Y79400D01*
X13400Y162850D02*X16600D01*
X13400D02*Y159650D01*
X16600D01*
Y162850D02*Y159650D01*
G54D58*X135000Y163500D02*X136500Y160500D01*
X138000Y163500D01*
X136500Y160500D02*Y157500D01*
X139800Y160800D02*X142050D01*
X139800Y157500D02*X142800D01*
X139800Y163500D02*Y157500D01*
Y163500D02*X142800D01*
X147600D02*X148350Y162750D01*
X145350Y163500D02*X147600D01*
X144600Y162750D02*X145350Y163500D01*
X144600Y162750D02*Y161250D01*
X145350Y160500D01*
X147600D01*
X148350Y159750D01*
Y158250D01*
X147600Y157500D02*X148350Y158250D01*
X145350Y157500D02*X147600D01*
X144600Y158250D02*X145350Y157500D01*
X100250Y163500D02*X101000Y162750D01*
X98750Y163500D02*X100250D01*
X98000Y162750D02*X98750Y163500D01*
X98000Y162750D02*Y158250D01*
X98750Y157500D01*
X100250Y160800D02*X101000Y160050D01*
X98000Y160800D02*X100250D01*
X98750Y157500D02*X100250D01*
X101000Y158250D01*
Y160050D02*Y158250D01*
X45000D02*X45750Y157500D01*
X45000Y162750D02*Y158250D01*
Y162750D02*X45750Y163500D01*
X47250D01*
X48000Y162750D01*
Y158250D01*
X47250Y157500D02*X48000Y158250D01*
X45750Y157500D02*X47250D01*
X45000Y159000D02*X48000Y162000D01*
X49800Y157500D02*X50550D01*
X52350Y162300D02*X53550Y163500D01*
Y157500D01*
X52350D02*X54600D01*
X56400Y162750D02*X57150Y163500D01*
X58650D01*
X59400Y162750D01*
X58650Y157500D02*X59400Y158250D01*
X57150Y157500D02*X58650D01*
X56400Y158250D02*X57150Y157500D01*
Y160800D02*X58650D01*
X59400Y162750D02*Y161550D01*
Y160050D02*Y158250D01*
Y160050D02*X58650Y160800D01*
X59400Y161550D02*X58650Y160800D01*
X63450Y163500D02*X64200Y162750D01*
X61950Y163500D02*X63450D01*
X61200Y162750D02*X61950Y163500D01*
X61200Y162750D02*Y158250D01*
X61950Y157500D01*
X63450Y160800D02*X64200Y160050D01*
X61200Y160800D02*X63450D01*
X61950Y157500D02*X63450D01*
X64200Y158250D01*
Y160050D02*Y158250D01*
X24200Y125000D02*G75*G03X25800Y125000I800J0D01*G01*
G75*G03X24200Y125000I-800J0D01*G01*
Y25000D02*G75*G03X25800Y25000I800J0D01*G01*
G75*G03X24200Y25000I-800J0D01*G01*
X249200Y125000D02*G75*G03X250800Y125000I800J0D01*G01*
G75*G03X249200Y125000I-800J0D01*G01*
Y25000D02*G75*G03X250800Y25000I800J0D01*G01*
G75*G03X249200Y25000I-800J0D01*G01*
X499200Y125000D02*G75*G03X500800Y125000I800J0D01*G01*
G75*G03X499200Y125000I-800J0D01*G01*
Y25000D02*G75*G03X500800Y25000I800J0D01*G01*
G75*G03X499200Y25000I-800J0D01*G01*
X14200Y176250D02*G75*G03X15800Y176250I800J0D01*G01*
G75*G03X14200Y176250I-800J0D01*G01*
X135000Y178500D02*X136500Y175500D01*
X138000Y178500D01*
X136500Y175500D02*Y172500D01*
X139800Y175800D02*X142050D01*
X139800Y172500D02*X142800D01*
X139800Y178500D02*Y172500D01*
Y178500D02*X142800D01*
X147600D02*X148350Y177750D01*
X145350Y178500D02*X147600D01*
X144600Y177750D02*X145350Y178500D01*
X144600Y177750D02*Y176250D01*
X145350Y175500D01*
X147600D01*
X148350Y174750D01*
Y173250D01*
X147600Y172500D02*X148350Y173250D01*
X145350Y172500D02*X147600D01*
X144600Y173250D02*X145350Y172500D01*
X100250Y178500D02*X101000Y177750D01*
X98750Y178500D02*X100250D01*
X98000Y177750D02*X98750Y178500D01*
X98000Y177750D02*Y173250D01*
X98750Y172500D01*
X100250Y175800D02*X101000Y175050D01*
X98000Y175800D02*X100250D01*
X98750Y172500D02*X100250D01*
X101000Y173250D01*
Y175050D02*Y173250D01*
X45000D02*X45750Y172500D01*
X45000Y177750D02*Y173250D01*
Y177750D02*X45750Y178500D01*
X47250D01*
X48000Y177750D01*
Y173250D01*
X47250Y172500D02*X48000Y173250D01*
X45750Y172500D02*X47250D01*
X45000Y174000D02*X48000Y177000D01*
X49800Y172500D02*X50550D01*
X52350Y177300D02*X53550Y178500D01*
Y172500D01*
X52350D02*X54600D01*
X56400Y177750D02*X57150Y178500D01*
X59400D01*
X60150Y177750D01*
Y176250D01*
X56400Y172500D02*X60150Y176250D01*
X56400Y172500D02*X60150D01*
X61950Y178500D02*X64950D01*
X61950D02*Y175500D01*
X62700Y176250D01*
X64200D01*
X64950Y175500D01*
Y173250D01*
X64200Y172500D02*X64950Y173250D01*
X62700Y172500D02*X64200D01*
X61950Y173250D02*X62700Y172500D01*
X461300Y101200D02*X463700Y98800D01*
X461300D02*X463700Y101200D01*
X436300D02*X438700Y98800D01*
X436300D02*X438700Y101200D01*
X461300Y26200D02*X463700Y23800D01*
X461300D02*X463700Y26200D01*
X436300D02*X438700Y23800D01*
X436300D02*X438700Y26200D01*
X448800Y63700D02*X451200Y61300D01*
X448800D02*X451200Y63700D01*
X448800Y82200D02*X451200Y79800D01*
X448800D02*X451200Y82200D01*
X448800Y45200D02*X451200Y42800D01*
X448800D02*X451200Y45200D01*
X386300Y101200D02*X388700Y98800D01*
X386300D02*X388700Y101200D01*
X361300D02*X363700Y98800D01*
X361300D02*X363700Y101200D01*
X386300Y26200D02*X388700Y23800D01*
X386300D02*X388700Y26200D01*
X361300D02*X363700Y23800D01*
X361300D02*X363700Y26200D01*
X373800Y63700D02*X376200Y61300D01*
X373800D02*X376200Y63700D01*
X373800Y82200D02*X376200Y79800D01*
X373800D02*X376200Y82200D01*
X373800Y45200D02*X376200Y42800D01*
X373800D02*X376200Y45200D01*
X311300Y101200D02*X313700Y98800D01*
X311300D02*X313700Y101200D01*
X286300D02*X288700Y98800D01*
X286300D02*X288700Y101200D01*
X311300Y26200D02*X313700Y23800D01*
X311300D02*X313700Y26200D01*
X286300D02*X288700Y23800D01*
X286300D02*X288700Y26200D01*
X298800Y63700D02*X301200Y61300D01*
X298800D02*X301200Y63700D01*
X298800Y82200D02*X301200Y79800D01*
X298800D02*X301200Y82200D01*
X298800Y45200D02*X301200Y42800D01*
X298800D02*X301200Y45200D01*
X13800Y192450D02*X16200Y190050D01*
X13800D02*X16200Y192450D01*
X135000Y193500D02*X136500Y190500D01*
X138000Y193500D01*
X136500Y190500D02*Y187500D01*
X139800Y190800D02*X142050D01*
X139800Y187500D02*X142800D01*
X139800Y193500D02*Y187500D01*
Y193500D02*X142800D01*
X147600D02*X148350Y192750D01*
X145350Y193500D02*X147600D01*
X144600Y192750D02*X145350Y193500D01*
X144600Y192750D02*Y191250D01*
X145350Y190500D01*
X147600D01*
X148350Y189750D01*
Y188250D01*
X147600Y187500D02*X148350Y188250D01*
X145350Y187500D02*X147600D01*
X144600Y188250D02*X145350Y187500D01*
X98000Y192750D02*X98750Y193500D01*
X101000D01*
X101750Y192750D01*
Y191250D01*
X98000Y187500D02*X101750Y191250D01*
X98000Y187500D02*X101750D01*
X103550Y192300D02*X104750Y193500D01*
Y187500D01*
X103550D02*X105800D01*
X45000Y188250D02*X45750Y187500D01*
X45000Y192750D02*Y188250D01*
Y192750D02*X45750Y193500D01*
X47250D01*
X48000Y192750D01*
Y188250D01*
X47250Y187500D02*X48000Y188250D01*
X45750Y187500D02*X47250D01*
X45000Y189000D02*X48000Y192000D01*
X49800Y187500D02*X50550D01*
X52350Y188250D02*X53100Y187500D01*
X52350Y192750D02*Y188250D01*
Y192750D02*X53100Y193500D01*
X54600D01*
X55350Y192750D01*
Y188250D01*
X54600Y187500D02*X55350Y188250D01*
X53100Y187500D02*X54600D01*
X52350Y189000D02*X55350Y192000D01*
X57900Y187500D02*X60900Y193500D01*
X57150D02*X60900D01*
X62700Y192750D02*X63450Y193500D01*
X64950D01*
X65700Y192750D01*
X64950Y187500D02*X65700Y188250D01*
X63450Y187500D02*X64950D01*
X62700Y188250D02*X63450Y187500D01*
Y190800D02*X64950D01*
X65700Y192750D02*Y191550D01*
Y190050D02*Y188250D01*
Y190050D02*X64950Y190800D01*
X65700Y191550D02*X64950Y190800D01*
X212500Y66600D02*Y63400D01*
X210900Y65000D02*X214100D01*
X212500Y56600D02*Y53400D01*
X210900Y55000D02*X214100D01*
X212500Y46600D02*Y43400D01*
X210900Y45000D02*X214100D01*
X212500Y36600D02*Y33400D01*
X210900Y35000D02*X214100D01*
X62500Y66600D02*Y63400D01*
X60900Y65000D02*X64100D01*
X62500Y56600D02*Y53400D01*
X60900Y55000D02*X64100D01*
X62500Y46600D02*Y43400D01*
X60900Y45000D02*X64100D01*
X62500Y36600D02*Y33400D01*
X60900Y35000D02*X64100D01*
X137500Y66600D02*Y63400D01*
X135900Y65000D02*X139100D01*
X137500Y56600D02*Y53400D01*
X135900Y55000D02*X139100D01*
X137500Y46600D02*Y43400D01*
X135900Y45000D02*X139100D01*
X137500Y36600D02*Y33400D01*
X135900Y35000D02*X139100D01*
X175000Y111600D02*Y108400D01*
X173400Y110000D02*X176600D01*
X165000Y111600D02*Y108400D01*
X163400Y110000D02*X166600D01*
X175000Y101600D02*Y98400D01*
X173400Y100000D02*X176600D01*
X165000Y101600D02*Y98400D01*
X163400Y100000D02*X166600D01*
X175000Y91600D02*Y88400D01*
X173400Y90000D02*X176600D01*
X165000Y91600D02*Y88400D01*
X163400Y90000D02*X166600D01*
X175000Y81600D02*Y78400D01*
X173400Y80000D02*X176600D01*
X165000Y81600D02*Y78400D01*
X163400Y80000D02*X166600D01*
X175000Y71600D02*Y68400D01*
X173400Y70000D02*X176600D01*
X165000Y71600D02*Y68400D01*
X163400Y70000D02*X166600D01*
X175000Y61600D02*Y58400D01*
X173400Y60000D02*X176600D01*
X165000Y61600D02*Y58400D01*
X163400Y60000D02*X166600D01*
X175000Y51600D02*Y48400D01*
X173400Y50000D02*X176600D01*
X165000Y51600D02*Y48400D01*
X163400Y50000D02*X166600D01*
X175000Y41600D02*Y38400D01*
X173400Y40000D02*X176600D01*
X165000Y41600D02*Y38400D01*
X163400Y40000D02*X166600D01*
X175000Y31600D02*Y28400D01*
X173400Y30000D02*X176600D01*
X165000Y31600D02*Y28400D01*
X163400Y30000D02*X166600D01*
X175000Y21600D02*Y18400D01*
X173400Y20000D02*X176600D01*
X165000Y21600D02*Y18400D01*
X163400Y20000D02*X166600D01*
X15000Y207850D02*Y204650D01*
X13400Y206250D02*X16600D01*
X135000Y208500D02*X136500Y205500D01*
X138000Y208500D01*
X136500Y205500D02*Y202500D01*
X139800Y205800D02*X142050D01*
X139800Y202500D02*X142800D01*
X139800Y208500D02*Y202500D01*
Y208500D02*X142800D01*
X147600D02*X148350Y207750D01*
X145350Y208500D02*X147600D01*
X144600Y207750D02*X145350Y208500D01*
X144600Y207750D02*Y206250D01*
X145350Y205500D01*
X147600D01*
X148350Y204750D01*
Y203250D01*
X147600Y202500D02*X148350Y203250D01*
X145350Y202500D02*X147600D01*
X144600Y203250D02*X145350Y202500D01*
X98000Y207750D02*X98750Y208500D01*
X100250D01*
X101000Y207750D01*
X100250Y202500D02*X101000Y203250D01*
X98750Y202500D02*X100250D01*
X98000Y203250D02*X98750Y202500D01*
Y205800D02*X100250D01*
X101000Y207750D02*Y206550D01*
Y205050D02*Y203250D01*
Y205050D02*X100250Y205800D01*
X101000Y206550D02*X100250Y205800D01*
X102800Y207750D02*X103550Y208500D01*
X105800D01*
X106550Y207750D01*
Y206250D01*
X102800Y202500D02*X106550Y206250D01*
X102800Y202500D02*X106550D01*
X45000Y203250D02*X45750Y202500D01*
X45000Y207750D02*Y203250D01*
Y207750D02*X45750Y208500D01*
X47250D01*
X48000Y207750D01*
Y203250D01*
X47250Y202500D02*X48000Y203250D01*
X45750Y202500D02*X47250D01*
X45000Y204000D02*X48000Y207000D01*
X49800Y202500D02*X50550D01*
X52350Y203250D02*X53100Y202500D01*
X52350Y207750D02*Y203250D01*
Y207750D02*X53100Y208500D01*
X54600D01*
X55350Y207750D01*
Y203250D01*
X54600Y202500D02*X55350Y203250D01*
X53100Y202500D02*X54600D01*
X52350Y204000D02*X55350Y207000D01*
X57150Y204750D02*X60150Y208500D01*
X57150Y204750D02*X60900D01*
X60150Y208500D02*Y202500D01*
X62700Y207750D02*X63450Y208500D01*
X65700D01*
X66450Y207750D01*
Y206250D01*
X62700Y202500D02*X66450Y206250D01*
X62700Y202500D02*X66450D01*
X187500Y62500D02*Y60900D01*
Y62500D02*X188887Y63300D01*
X187500Y62500D02*X186113Y63300D01*
X275000Y72500D02*Y70900D01*
Y72500D02*X276387Y73300D01*
X275000Y72500D02*X273613Y73300D01*
X350000Y72500D02*Y70900D01*
Y72500D02*X351387Y73300D01*
X350000Y72500D02*X348613Y73300D01*
X425000Y72500D02*Y70900D01*
Y72500D02*X426387Y73300D01*
X425000Y72500D02*X423613Y73300D01*
X300000Y142500D02*Y140900D01*
Y142500D02*X301387Y143300D01*
X300000Y142500D02*X298613Y143300D01*
X92500Y132500D02*Y130900D01*
Y132500D02*X93887Y133300D01*
X92500Y132500D02*X91113Y133300D01*
X92500Y142500D02*Y140900D01*
Y142500D02*X93887Y143300D01*
X92500Y142500D02*X91113Y143300D01*
X375000Y132500D02*Y130900D01*
Y132500D02*X376387Y133300D01*
X375000Y132500D02*X373613Y133300D01*
X325000Y137500D02*Y135900D01*
Y137500D02*X326387Y138300D01*
X325000Y137500D02*X323613Y138300D01*
X400000Y127500D02*Y125900D01*
Y127500D02*X401387Y128300D01*
X400000Y127500D02*X398613Y128300D01*
X450000Y122500D02*Y120900D01*
Y122500D02*X451387Y123300D01*
X450000Y122500D02*X448613Y123300D01*
X132500Y130000D02*Y128400D01*
Y130000D02*X133887Y130800D01*
X132500Y130000D02*X131113Y130800D01*
X100000Y112500D02*Y110900D01*
Y112500D02*X101387Y113300D01*
X100000Y112500D02*X98613Y113300D01*
X177500Y127500D02*Y125900D01*
Y127500D02*X178887Y128300D01*
X177500Y127500D02*X176113Y128300D01*
X240000Y100000D02*Y98400D01*
Y100000D02*X241387Y100800D01*
X240000Y100000D02*X238613Y100800D01*
X475000Y117500D02*Y115900D01*
Y117500D02*X476387Y118300D01*
X475000Y117500D02*X473613Y118300D01*
X485000Y80000D02*Y78400D01*
Y80000D02*X486387Y80800D01*
X485000Y80000D02*X483613Y80800D01*
X15000Y221250D02*Y219650D01*
Y221250D02*X16387Y222050D01*
X15000Y221250D02*X13613Y222050D01*
X135000Y223500D02*X136500Y220500D01*
X138000Y223500D01*
X136500Y220500D02*Y217500D01*
X139800Y220800D02*X142050D01*
X139800Y217500D02*X142800D01*
X139800Y223500D02*Y217500D01*
Y223500D02*X142800D01*
X147600D02*X148350Y222750D01*
X145350Y223500D02*X147600D01*
X144600Y222750D02*X145350Y223500D01*
X144600Y222750D02*Y221250D01*
X145350Y220500D01*
X147600D01*
X148350Y219750D01*
Y218250D01*
X147600Y217500D02*X148350Y218250D01*
X145350Y217500D02*X147600D01*
X144600Y218250D02*X145350Y217500D01*
X98000Y222300D02*X99200Y223500D01*
Y217500D01*
X98000D02*X100250D01*
X102800D02*X105800Y223500D01*
X102050D02*X105800D01*
X45000Y218250D02*X45750Y217500D01*
X45000Y222750D02*Y218250D01*
Y222750D02*X45750Y223500D01*
X47250D01*
X48000Y222750D01*
Y218250D01*
X47250Y217500D02*X48000Y218250D01*
X45750Y217500D02*X47250D01*
X45000Y219000D02*X48000Y222000D01*
X49800Y217500D02*X50550D01*
X52350Y218250D02*X53100Y217500D01*
X52350Y222750D02*Y218250D01*
Y222750D02*X53100Y223500D01*
X54600D01*
X55350Y222750D01*
Y218250D01*
X54600Y217500D02*X55350Y218250D01*
X53100Y217500D02*X54600D01*
X52350Y219000D02*X55350Y222000D01*
X57150Y222750D02*X57900Y223500D01*
X60150D01*
X60900Y222750D01*
Y221250D01*
X57150Y217500D02*X60900Y221250D01*
X57150Y217500D02*X60900D01*
X62700Y218250D02*X63450Y217500D01*
X62700Y219450D02*Y218250D01*
Y219450D02*X63750Y220500D01*
X64650D01*
X65700Y219450D01*
Y218250D01*
X64950Y217500D02*X65700Y218250D01*
X63450Y217500D02*X64950D01*
X62700Y221550D02*X63750Y220500D01*
X62700Y222750D02*Y221550D01*
Y222750D02*X63450Y223500D01*
X64950D01*
X65700Y222750D01*
Y221550D01*
X64650Y220500D02*X65700Y221550D01*
X3000Y238500D02*X3750Y237750D01*
X750Y238500D02*X3000D01*
X0Y237750D02*X750Y238500D01*
X0Y237750D02*Y236250D01*
X750Y235500D01*
X3000D01*
X3750Y234750D01*
Y233250D01*
X3000Y232500D02*X3750Y233250D01*
X750Y232500D02*X3000D01*
X0Y233250D02*X750Y232500D01*
X5550Y235500D02*Y233250D01*
X6300Y232500D01*
X8550Y235500D02*Y231000D01*
X7800Y230250D02*X8550Y231000D01*
X6300Y230250D02*X7800D01*
X5550Y231000D02*X6300Y230250D01*
Y232500D02*X7800D01*
X8550Y233250D01*
X11100Y234750D02*Y232500D01*
Y234750D02*X11850Y235500D01*
X12600D01*
X13350Y234750D01*
Y232500D01*
Y234750D02*X14100Y235500D01*
X14850D01*
X15600Y234750D01*
Y232500D01*
X10350Y235500D02*X11100Y234750D01*
X17400Y238500D02*Y232500D01*
Y233250D02*X18150Y232500D01*
X19650D01*
X20400Y233250D01*
Y234750D02*Y233250D01*
X19650Y235500D02*X20400Y234750D01*
X18150Y235500D02*X19650D01*
X17400Y234750D02*X18150Y235500D01*
X22200Y234750D02*Y233250D01*
Y234750D02*X22950Y235500D01*
X24450D01*
X25200Y234750D01*
Y233250D01*
X24450Y232500D02*X25200Y233250D01*
X22950Y232500D02*X24450D01*
X22200Y233250D02*X22950Y232500D01*
X27000Y238500D02*Y233250D01*
X27750Y232500D01*
X0Y229250D02*X29250D01*
X41750Y238500D02*Y232500D01*
X43700Y238500D02*X44750Y237450D01*
Y233550D01*
X43700Y232500D02*X44750Y233550D01*
X41000Y232500D02*X43700D01*
X41000Y238500D02*X43700D01*
G54D59*X46550Y237000D02*Y236850D01*
G54D58*Y234750D02*Y232500D01*
X50300Y235500D02*X51050Y234750D01*
X48800Y235500D02*X50300D01*
X48050Y234750D02*X48800Y235500D01*
X48050Y234750D02*Y233250D01*
X48800Y232500D01*
X51050Y235500D02*Y233250D01*
X51800Y232500D01*
X48800D02*X50300D01*
X51050Y233250D01*
X54350Y234750D02*Y232500D01*
Y234750D02*X55100Y235500D01*
X55850D01*
X56600Y234750D01*
Y232500D01*
Y234750D02*X57350Y235500D01*
X58100D01*
X58850Y234750D01*
Y232500D01*
X53600Y235500D02*X54350Y234750D01*
X60650Y232500D02*X61400D01*
X65900Y233250D02*X66650Y232500D01*
X65900Y237750D02*X66650Y238500D01*
X65900Y237750D02*Y233250D01*
X68450Y238500D02*X69950D01*
X69200D02*Y232500D01*
X68450D02*X69950D01*
X72500Y234750D02*Y232500D01*
Y234750D02*X73250Y235500D01*
X74000D01*
X74750Y234750D01*
Y232500D01*
X71750Y235500D02*X72500Y234750D01*
X77300Y235500D02*X79550D01*
X76550Y234750D02*X77300Y235500D01*
X76550Y234750D02*Y233250D01*
X77300Y232500D01*
X79550D01*
X81350Y238500D02*Y232500D01*
Y234750D02*X82100Y235500D01*
X83600D01*
X84350Y234750D01*
Y232500D01*
X86150Y238500D02*X86900Y237750D01*
Y233250D01*
X86150Y232500D02*X86900Y233250D01*
X41000Y229250D02*X88700D01*
X96050Y232500D02*X98000D01*
X95000Y233550D02*X96050Y232500D01*
X95000Y237450D02*Y233550D01*
Y237450D02*X96050Y238500D01*
X98000D01*
X99800Y234750D02*Y233250D01*
Y234750D02*X100550Y235500D01*
X102050D01*
X102800Y234750D01*
Y233250D01*
X102050Y232500D02*X102800Y233250D01*
X100550Y232500D02*X102050D01*
X99800Y233250D02*X100550Y232500D01*
X104600Y235500D02*Y233250D01*
X105350Y232500D01*
X106850D01*
X107600Y233250D01*
Y235500D02*Y233250D01*
X110150Y234750D02*Y232500D01*
Y234750D02*X110900Y235500D01*
X111650D01*
X112400Y234750D01*
Y232500D01*
X109400Y235500D02*X110150Y234750D01*
X114950Y238500D02*Y233250D01*
X115700Y232500D01*
X114200Y236250D02*X115700D01*
X95000Y229250D02*X117200D01*
X130750Y238500D02*Y232500D01*
X130000Y238500D02*X133000D01*
X133750Y237750D01*
Y236250D01*
X133000Y235500D02*X133750Y236250D01*
X130750Y235500D02*X133000D01*
X135550Y238500D02*Y233250D01*
X136300Y232500D01*
X140050Y235500D02*X140800Y234750D01*
X138550Y235500D02*X140050D01*
X137800Y234750D02*X138550Y235500D01*
X137800Y234750D02*Y233250D01*
X138550Y232500D01*
X140800Y235500D02*Y233250D01*
X141550Y232500D01*
X138550D02*X140050D01*
X140800Y233250D01*
X144100Y238500D02*Y233250D01*
X144850Y232500D01*
X143350Y236250D02*X144850D01*
X147100Y232500D02*X149350D01*
X146350Y233250D02*X147100Y232500D01*
X146350Y234750D02*Y233250D01*
Y234750D02*X147100Y235500D01*
X148600D01*
X149350Y234750D01*
X146350Y234000D02*X149350D01*
Y234750D02*Y234000D01*
X154150Y238500D02*Y232500D01*
X153400D02*X154150Y233250D01*
X151900Y232500D02*X153400D01*
X151150Y233250D02*X151900Y232500D01*
X151150Y234750D02*Y233250D01*
Y234750D02*X151900Y235500D01*
X153400D01*
X154150Y234750D01*
X157450Y235500D02*Y234750D01*
Y233250D02*Y232500D01*
X155950Y237750D02*Y237000D01*
Y237750D02*X156700Y238500D01*
X158200D01*
X158950Y237750D01*
Y237000D01*
X157450Y235500D02*X158950Y237000D01*
X130000Y229250D02*X160750D01*
X0Y253500D02*X3000D01*
X1500D02*Y247500D01*
X4800Y253500D02*Y247500D01*
Y249750D02*X5550Y250500D01*
X7050D01*
X7800Y249750D01*
Y247500D01*
X10350D02*X12600D01*
X9600Y248250D02*X10350Y247500D01*
X9600Y249750D02*Y248250D01*
Y249750D02*X10350Y250500D01*
X11850D01*
X12600Y249750D01*
X9600Y249000D02*X12600D01*
Y249750D02*Y249000D01*
X15150Y249750D02*Y247500D01*
Y249750D02*X15900Y250500D01*
X17400D01*
X14400D02*X15150Y249750D01*
X19950Y247500D02*X22200D01*
X19200Y248250D02*X19950Y247500D01*
X19200Y249750D02*Y248250D01*
Y249750D02*X19950Y250500D01*
X21450D01*
X22200Y249750D01*
X19200Y249000D02*X22200D01*
Y249750D02*Y249000D01*
X28950Y250500D02*X29700Y249750D01*
X27450Y250500D02*X28950D01*
X26700Y249750D02*X27450Y250500D01*
X26700Y249750D02*Y248250D01*
X27450Y247500D01*
X29700Y250500D02*Y248250D01*
X30450Y247500D01*
X27450D02*X28950D01*
X29700Y248250D01*
X33000Y249750D02*Y247500D01*
Y249750D02*X33750Y250500D01*
X35250D01*
X32250D02*X33000Y249750D01*
X37800Y247500D02*X40050D01*
X37050Y248250D02*X37800Y247500D01*
X37050Y249750D02*Y248250D01*
Y249750D02*X37800Y250500D01*
X39300D01*
X40050Y249750D01*
X37050Y249000D02*X40050D01*
Y249750D02*Y249000D01*
X44550Y253500D02*X47550D01*
X44550D02*Y250500D01*
X45300Y251250D01*
X46800D01*
X47550Y250500D01*
Y248250D01*
X46800Y247500D02*X47550Y248250D01*
X45300Y247500D02*X46800D01*
X44550Y248250D02*X45300Y247500D01*
X55050Y253500D02*Y247500D01*
X54300D02*X55050Y248250D01*
X52800Y247500D02*X54300D01*
X52050Y248250D02*X52800Y247500D01*
X52050Y249750D02*Y248250D01*
Y249750D02*X52800Y250500D01*
X54300D01*
X55050Y249750D01*
G54D59*X56850Y252000D02*Y251850D01*
G54D58*Y249750D02*Y247500D01*
X59100Y252750D02*Y247500D01*
Y252750D02*X59850Y253500D01*
X60600D01*
X58350Y250500D02*X59850D01*
X62850Y252750D02*Y247500D01*
Y252750D02*X63600Y253500D01*
X64350D01*
X62100Y250500D02*X63600D01*
X66600Y247500D02*X68850D01*
X65850Y248250D02*X66600Y247500D01*
X65850Y249750D02*Y248250D01*
Y249750D02*X66600Y250500D01*
X68100D01*
X68850Y249750D01*
X65850Y249000D02*X68850D01*
Y249750D02*Y249000D01*
X71400Y249750D02*Y247500D01*
Y249750D02*X72150Y250500D01*
X73650D01*
X70650D02*X71400Y249750D01*
X76200Y247500D02*X78450D01*
X75450Y248250D02*X76200Y247500D01*
X75450Y249750D02*Y248250D01*
Y249750D02*X76200Y250500D01*
X77700D01*
X78450Y249750D01*
X75450Y249000D02*X78450D01*
Y249750D02*Y249000D01*
X81000Y249750D02*Y247500D01*
Y249750D02*X81750Y250500D01*
X82500D01*
X83250Y249750D01*
Y247500D01*
X80250Y250500D02*X81000Y249750D01*
X85800Y253500D02*Y248250D01*
X86550Y247500D01*
X85050Y251250D02*X86550D01*
X93750Y253500D02*Y247500D01*
X93000D02*X93750Y248250D01*
X91500Y247500D02*X93000D01*
X90750Y248250D02*X91500Y247500D01*
X90750Y249750D02*Y248250D01*
Y249750D02*X91500Y250500D01*
X93000D01*
X93750Y249750D01*
X96300D02*Y247500D01*
Y249750D02*X97050Y250500D01*
X98550D01*
X95550D02*X96300Y249750D01*
G54D59*X100350Y252000D02*Y251850D01*
G54D58*Y249750D02*Y247500D01*
X101850Y253500D02*Y248250D01*
X102600Y247500D01*
X104100Y253500D02*Y248250D01*
X104850Y247500D01*
X109800D02*X112050D01*
X112800Y248250D01*
X112050Y249000D02*X112800Y248250D01*
X109800Y249000D02*X112050D01*
X109050Y249750D02*X109800Y249000D01*
X109050Y249750D02*X109800Y250500D01*
X112050D01*
X112800Y249750D01*
X109050Y248250D02*X109800Y247500D01*
G54D59*X114600Y252000D02*Y251850D01*
G54D58*Y249750D02*Y247500D01*
X116100Y250500D02*X119100D01*
X116100Y247500D02*X119100Y250500D01*
X116100Y247500D02*X119100D01*
X121650D02*X123900D01*
X120900Y248250D02*X121650Y247500D01*
X120900Y249750D02*Y248250D01*
Y249750D02*X121650Y250500D01*
X123150D01*
X123900Y249750D01*
X120900Y249000D02*X123900D01*
Y249750D02*Y249000D01*
X126450Y247500D02*X128700D01*
X129450Y248250D01*
X128700Y249000D02*X129450Y248250D01*
X126450Y249000D02*X128700D01*
X125700Y249750D02*X126450Y249000D01*
X125700Y249750D02*X126450Y250500D01*
X128700D01*
X129450Y249750D01*
X125700Y248250D02*X126450Y247500D01*
X133950Y250500D02*Y248250D01*
X134700Y247500D01*
X136200D01*
X136950Y248250D01*
Y250500D02*Y248250D01*
X139500Y247500D02*X141750D01*
X142500Y248250D01*
X141750Y249000D02*X142500Y248250D01*
X139500Y249000D02*X141750D01*
X138750Y249750D02*X139500Y249000D01*
X138750Y249750D02*X139500Y250500D01*
X141750D01*
X142500Y249750D01*
X138750Y248250D02*X139500Y247500D01*
X145050D02*X147300D01*
X144300Y248250D02*X145050Y247500D01*
X144300Y249750D02*Y248250D01*
Y249750D02*X145050Y250500D01*
X146550D01*
X147300Y249750D01*
X144300Y249000D02*X147300D01*
Y249750D02*Y249000D01*
X152100Y253500D02*Y247500D01*
X151350D02*X152100Y248250D01*
X149850Y247500D02*X151350D01*
X149100Y248250D02*X149850Y247500D01*
X149100Y249750D02*Y248250D01*
Y249750D02*X149850Y250500D01*
X151350D01*
X152100Y249750D01*
G54D59*X156600Y252000D02*Y251850D01*
G54D58*Y249750D02*Y247500D01*
X158850Y249750D02*Y247500D01*
Y249750D02*X159600Y250500D01*
X160350D01*
X161100Y249750D01*
Y247500D01*
X158100Y250500D02*X158850Y249750D01*
X166350Y253500D02*Y248250D01*
X167100Y247500D01*
X165600Y251250D02*X167100D01*
X168600Y253500D02*Y247500D01*
Y249750D02*X169350Y250500D01*
X170850D01*
X171600Y249750D01*
Y247500D01*
G54D59*X173400Y252000D02*Y251850D01*
G54D58*Y249750D02*Y247500D01*
X175650D02*X177900D01*
X178650Y248250D01*
X177900Y249000D02*X178650Y248250D01*
X175650Y249000D02*X177900D01*
X174900Y249750D02*X175650Y249000D01*
X174900Y249750D02*X175650Y250500D01*
X177900D01*
X178650Y249750D01*
X174900Y248250D02*X175650Y247500D01*
X183150Y253500D02*Y248250D01*
X183900Y247500D01*
X187650Y250500D02*X188400Y249750D01*
X186150Y250500D02*X187650D01*
X185400Y249750D02*X186150Y250500D01*
X185400Y249750D02*Y248250D01*
X186150Y247500D01*
X188400Y250500D02*Y248250D01*
X189150Y247500D01*
X186150D02*X187650D01*
X188400Y248250D01*
X190950Y250500D02*Y248250D01*
X191700Y247500D01*
X193950Y250500D02*Y246000D01*
X193200Y245250D02*X193950Y246000D01*
X191700Y245250D02*X193200D01*
X190950Y246000D02*X191700Y245250D01*
Y247500D02*X193200D01*
X193950Y248250D01*
X195750Y249750D02*Y248250D01*
Y249750D02*X196500Y250500D01*
X198000D01*
X198750Y249750D01*
Y248250D01*
X198000Y247500D02*X198750Y248250D01*
X196500Y247500D02*X198000D01*
X195750Y248250D02*X196500Y247500D01*
X200550Y250500D02*Y248250D01*
X201300Y247500D01*
X202800D01*
X203550Y248250D01*
Y250500D02*Y248250D01*
X206100Y253500D02*Y248250D01*
X206850Y247500D01*
X205350Y251250D02*X206850D01*
X208350Y246000D02*X209850Y247500D01*
X214350Y248250D02*X215100Y247500D01*
X214350Y249450D02*Y248250D01*
Y249450D02*X215400Y250500D01*
X216300D01*
X217350Y249450D01*
Y248250D01*
X216600Y247500D02*X217350Y248250D01*
X215100Y247500D02*X216600D01*
X214350Y251550D02*X215400Y250500D01*
X214350Y252750D02*Y251550D01*
Y252750D02*X215100Y253500D01*
X216600D01*
X217350Y252750D01*
Y251550D01*
X216300Y250500D02*X217350Y251550D01*
X219150Y252750D02*X219900Y253500D01*
X222150D01*
X222900Y252750D01*
Y251250D01*
X219150Y247500D02*X222900Y251250D01*
X219150Y247500D02*X222900D01*
X227400Y253500D02*Y247500D01*
Y249750D02*X228150Y250500D01*
X229650D01*
X230400Y249750D01*
Y247500D01*
X232200Y249750D02*Y248250D01*
Y249750D02*X232950Y250500D01*
X234450D01*
X235200Y249750D01*
Y248250D01*
X234450Y247500D02*X235200Y248250D01*
X232950Y247500D02*X234450D01*
X232200Y248250D02*X232950Y247500D01*
X237000Y253500D02*Y248250D01*
X237750Y247500D01*
X240000D02*X242250D01*
X239250Y248250D02*X240000Y247500D01*
X239250Y249750D02*Y248250D01*
Y249750D02*X240000Y250500D01*
X241500D01*
X242250Y249750D01*
X239250Y249000D02*X242250D01*
Y249750D02*Y249000D01*
X244800Y247500D02*X247050D01*
X247800Y248250D01*
X247050Y249000D02*X247800Y248250D01*
X244800Y249000D02*X247050D01*
X244050Y249750D02*X244800Y249000D01*
X244050Y249750D02*X244800Y250500D01*
X247050D01*
X247800Y249750D01*
X244050Y248250D02*X244800Y247500D01*
X253050Y253500D02*Y248250D01*
X253800Y247500D01*
X252300Y251250D02*X253800D01*
X255300Y249750D02*Y248250D01*
Y249750D02*X256050Y250500D01*
X257550D01*
X258300Y249750D01*
Y248250D01*
X257550Y247500D02*X258300Y248250D01*
X256050Y247500D02*X257550D01*
X255300Y248250D02*X256050Y247500D01*
X260850Y253500D02*Y248250D01*
X261600Y247500D01*
X260100Y251250D02*X261600D01*
X265350Y250500D02*X266100Y249750D01*
X263850Y250500D02*X265350D01*
X263100Y249750D02*X263850Y250500D01*
X263100Y249750D02*Y248250D01*
X263850Y247500D01*
X266100Y250500D02*Y248250D01*
X266850Y247500D01*
X263850D02*X265350D01*
X266100Y248250D01*
X268650Y253500D02*Y248250D01*
X269400Y247500D01*
G54D60*X0Y150000D02*Y0D01*
X525000D01*
Y150000D01*
X0D01*
G54D58*X176175Y-9500D02*X179175D01*
X179925Y-8750D01*
Y-6950D02*Y-8750D01*
X179175Y-6200D02*X179925Y-6950D01*
X176925Y-6200D02*X179175D01*
X176925Y-3500D02*Y-9500D01*
X176175Y-3500D02*X179175D01*
X179925Y-4250D01*
Y-5450D01*
X179175Y-6200D02*X179925Y-5450D01*
X181725Y-7250D02*Y-8750D01*
Y-7250D02*X182475Y-6500D01*
X183975D01*
X184725Y-7250D01*
Y-8750D01*
X183975Y-9500D02*X184725Y-8750D01*
X182475Y-9500D02*X183975D01*
X181725Y-8750D02*X182475Y-9500D01*
X188775Y-6500D02*X189525Y-7250D01*
X187275Y-6500D02*X188775D01*
X186525Y-7250D02*X187275Y-6500D01*
X186525Y-7250D02*Y-8750D01*
X187275Y-9500D01*
X189525Y-6500D02*Y-8750D01*
X190275Y-9500D01*
X187275D02*X188775D01*
X189525Y-8750D01*
X192825Y-7250D02*Y-9500D01*
Y-7250D02*X193575Y-6500D01*
X195075D01*
X192075D02*X192825Y-7250D01*
X199875Y-3500D02*Y-9500D01*
X199125D02*X199875Y-8750D01*
X197625Y-9500D02*X199125D01*
X196875Y-8750D02*X197625Y-9500D01*
X196875Y-7250D02*Y-8750D01*
Y-7250D02*X197625Y-6500D01*
X199125D01*
X199875Y-7250D01*
X204375D02*Y-8750D01*
Y-7250D02*X205125Y-6500D01*
X206625D01*
X207375Y-7250D01*
Y-8750D01*
X206625Y-9500D02*X207375Y-8750D01*
X205125Y-9500D02*X206625D01*
X204375Y-8750D02*X205125Y-9500D01*
X209175Y-6500D02*Y-8750D01*
X209925Y-9500D01*
X211425D01*
X212175Y-8750D01*
Y-6500D02*Y-8750D01*
X214725Y-3500D02*Y-8750D01*
X215475Y-9500D01*
X213975Y-5750D02*X215475D01*
X216975Y-3500D02*Y-8750D01*
X217725Y-9500D01*
G54D59*X219225Y-5000D02*Y-5150D01*
G54D58*Y-7250D02*Y-9500D01*
X221475Y-7250D02*Y-9500D01*
Y-7250D02*X222225Y-6500D01*
X222975D01*
X223725Y-7250D01*
Y-9500D01*
X220725Y-6500D02*X221475Y-7250D01*
X226275Y-9500D02*X228525D01*
X225525Y-8750D02*X226275Y-9500D01*
X225525Y-7250D02*Y-8750D01*
Y-7250D02*X226275Y-6500D01*
X227775D01*
X228525Y-7250D01*
X225525Y-8000D02*X228525D01*
Y-7250D02*Y-8000D01*
G54D59*X233025Y-5000D02*Y-5150D01*
G54D58*Y-7250D02*Y-9500D01*
X235275D02*X237525D01*
X238275Y-8750D01*
X237525Y-8000D02*X238275Y-8750D01*
X235275Y-8000D02*X237525D01*
X234525Y-7250D02*X235275Y-8000D01*
X234525Y-7250D02*X235275Y-6500D01*
X237525D01*
X238275Y-7250D01*
X234525Y-8750D02*X235275Y-9500D01*
X243525Y-3500D02*Y-8750D01*
X244275Y-9500D01*
X242775Y-5750D02*X244275D01*
X245775Y-3500D02*Y-9500D01*
Y-7250D02*X246525Y-6500D01*
X248025D01*
X248775Y-7250D01*
Y-9500D01*
X251325D02*X253575D01*
X250575Y-8750D02*X251325Y-9500D01*
X250575Y-7250D02*Y-8750D01*
Y-7250D02*X251325Y-6500D01*
X252825D01*
X253575Y-7250D01*
X250575Y-8000D02*X253575D01*
Y-7250D02*Y-8000D01*
X258825Y-6500D02*X261075D01*
X258075Y-7250D02*X258825Y-6500D01*
X258075Y-7250D02*Y-8750D01*
X258825Y-9500D01*
X261075D01*
X263625D02*X265875D01*
X262875Y-8750D02*X263625Y-9500D01*
X262875Y-7250D02*Y-8750D01*
Y-7250D02*X263625Y-6500D01*
X265125D01*
X265875Y-7250D01*
X262875Y-8000D02*X265875D01*
Y-7250D02*Y-8000D01*
X268425Y-7250D02*Y-9500D01*
Y-7250D02*X269175Y-6500D01*
X269925D01*
X270675Y-7250D01*
Y-9500D01*
X267675Y-6500D02*X268425Y-7250D01*
X273225Y-3500D02*Y-8750D01*
X273975Y-9500D01*
X272475Y-5750D02*X273975D01*
X276225Y-9500D02*X278475D01*
X275475Y-8750D02*X276225Y-9500D01*
X275475Y-7250D02*Y-8750D01*
Y-7250D02*X276225Y-6500D01*
X277725D01*
X278475Y-7250D01*
X275475Y-8000D02*X278475D01*
Y-7250D02*Y-8000D01*
X281025Y-7250D02*Y-9500D01*
Y-7250D02*X281775Y-6500D01*
X283275D01*
X280275D02*X281025Y-7250D01*
X285075Y-3500D02*Y-8750D01*
X285825Y-9500D01*
G54D59*X287325Y-5000D02*Y-5150D01*
G54D58*Y-7250D02*Y-9500D01*
X289575Y-7250D02*Y-9500D01*
Y-7250D02*X290325Y-6500D01*
X291075D01*
X291825Y-7250D01*
Y-9500D01*
X288825Y-6500D02*X289575Y-7250D01*
X294375Y-9500D02*X296625D01*
X293625Y-8750D02*X294375Y-9500D01*
X293625Y-7250D02*Y-8750D01*
Y-7250D02*X294375Y-6500D01*
X295875D01*
X296625Y-7250D01*
X293625Y-8000D02*X296625D01*
Y-7250D02*Y-8000D01*
X301125Y-7250D02*Y-8750D01*
Y-7250D02*X301875Y-6500D01*
X303375D01*
X304125Y-7250D01*
Y-8750D01*
X303375Y-9500D02*X304125Y-8750D01*
X301875Y-9500D02*X303375D01*
X301125Y-8750D02*X301875Y-9500D01*
X306675Y-4250D02*Y-9500D01*
Y-4250D02*X307425Y-3500D01*
X308175D01*
X305925Y-6500D02*X307425D01*
X313125Y-3500D02*Y-8750D01*
X313875Y-9500D01*
X312375Y-5750D02*X313875D01*
X315375Y-3500D02*Y-9500D01*
Y-7250D02*X316125Y-6500D01*
X317625D01*
X318375Y-7250D01*
Y-9500D01*
G54D59*X320175Y-5000D02*Y-5150D01*
G54D58*Y-7250D02*Y-9500D01*
X322425D02*X324675D01*
X325425Y-8750D01*
X324675Y-8000D02*X325425Y-8750D01*
X322425Y-8000D02*X324675D01*
X321675Y-7250D02*X322425Y-8000D01*
X321675Y-7250D02*X322425Y-6500D01*
X324675D01*
X325425Y-7250D01*
X321675Y-8750D02*X322425Y-9500D01*
X330675Y-7250D02*Y-11750D01*
X329925Y-6500D02*X330675Y-7250D01*
X331425Y-6500D01*
X332925D01*
X333675Y-7250D01*
Y-8750D01*
X332925Y-9500D02*X333675Y-8750D01*
X331425Y-9500D02*X332925D01*
X330675Y-8750D02*X331425Y-9500D01*
X337725Y-6500D02*X338475Y-7250D01*
X336225Y-6500D02*X337725D01*
X335475Y-7250D02*X336225Y-6500D01*
X335475Y-7250D02*Y-8750D01*
X336225Y-9500D01*
X338475Y-6500D02*Y-8750D01*
X339225Y-9500D01*
X336225D02*X337725D01*
X338475Y-8750D01*
X341775Y-3500D02*Y-8750D01*
X342525Y-9500D01*
X341025Y-5750D02*X342525D01*
X344025Y-3500D02*Y-9500D01*
Y-7250D02*X344775Y-6500D01*
X346275D01*
X347025Y-7250D01*
Y-9500D01*
X200750Y178500D02*Y172500D01*
X202700Y178500D02*X203750Y177450D01*
Y173550D01*
X202700Y172500D02*X203750Y173550D01*
X200000Y172500D02*X202700D01*
X200000Y178500D02*X202700D01*
X207800Y175500D02*X208550Y174750D01*
X206300Y175500D02*X207800D01*
X205550Y174750D02*X206300Y175500D01*
X205550Y174750D02*Y173250D01*
X206300Y172500D01*
X208550Y175500D02*Y173250D01*
X209300Y172500D01*
X206300D02*X207800D01*
X208550Y173250D01*
X211850Y178500D02*Y173250D01*
X212600Y172500D01*
X211100Y176250D02*X212600D01*
X214850Y172500D02*X217100D01*
X214100Y173250D02*X214850Y172500D01*
X214100Y174750D02*Y173250D01*
Y174750D02*X214850Y175500D01*
X216350D01*
X217100Y174750D01*
X214100Y174000D02*X217100D01*
Y174750D02*Y174000D01*
X218900Y176250D02*X219650D01*
X218900Y174750D02*X219650D01*
X224150Y178500D02*X227150D01*
X225650D02*Y172500D01*
X228950Y175500D02*Y173250D01*
X229700Y172500D01*
X231200D01*
X231950Y173250D01*
Y175500D02*Y173250D01*
X234500Y172500D02*X236750D01*
X233750Y173250D02*X234500Y172500D01*
X233750Y174750D02*Y173250D01*
Y174750D02*X234500Y175500D01*
X236000D01*
X236750Y174750D01*
X233750Y174000D02*X236750D01*
Y174750D02*Y174000D01*
X241250Y178500D02*Y172500D01*
Y178500D02*X243500Y175500D01*
X245750Y178500D01*
Y172500D01*
X249800Y175500D02*X250550Y174750D01*
X248300Y175500D02*X249800D01*
X247550Y174750D02*X248300Y175500D01*
X247550Y174750D02*Y173250D01*
X248300Y172500D01*
X250550Y175500D02*Y173250D01*
X251300Y172500D01*
X248300D02*X249800D01*
X250550Y173250D01*
X253100Y175500D02*Y173250D01*
X253850Y172500D01*
X256100Y175500D02*Y171000D01*
X255350Y170250D02*X256100Y171000D01*
X253850Y170250D02*X255350D01*
X253100Y171000D02*X253850Y170250D01*
Y172500D02*X255350D01*
X256100Y173250D01*
X260600Y177300D02*X261800Y178500D01*
Y172500D01*
X260600D02*X262850D01*
X264650Y177300D02*X265850Y178500D01*
Y172500D01*
X264650D02*X266900D01*
X271400Y177750D02*X272150Y178500D01*
X274400D01*
X275150Y177750D01*
Y176250D01*
X271400Y172500D02*X275150Y176250D01*
X271400Y172500D02*X275150D01*
X276950Y177300D02*X278150Y178500D01*
Y172500D01*
X276950D02*X279200D01*
X281000Y176250D02*X281750D01*
X281000Y174750D02*X281750D01*
X283550Y177300D02*X284750Y178500D01*
Y172500D01*
X283550D02*X285800D01*
X288350D02*X291350Y178500D01*
X287600D02*X291350D01*
X293150Y176250D02*X293900D01*
X293150Y174750D02*X293900D01*
X295700Y177750D02*X296450Y178500D01*
X297950D01*
X298700Y177750D01*
X297950Y172500D02*X298700Y173250D01*
X296450Y172500D02*X297950D01*
X295700Y173250D02*X296450Y172500D01*
Y175800D02*X297950D01*
X298700Y177750D02*Y176550D01*
Y175050D02*Y173250D01*
Y175050D02*X297950Y175800D01*
X298700Y176550D02*X297950Y175800D01*
X301250Y172500D02*X303500Y175500D01*
Y177750D02*Y175500D01*
X302750Y178500D02*X303500Y177750D01*
X301250Y178500D02*X302750D01*
X300500Y177750D02*X301250Y178500D01*
X300500Y177750D02*Y176250D01*
X301250Y175500D01*
X303500D01*
X308000Y177750D02*X308750Y178500D01*
X311000D01*
X311750Y177750D01*
Y176250D01*
X308000Y172500D02*X311750Y176250D01*
X308000Y172500D02*X311750D01*
X313550Y173250D02*X314300Y172500D01*
X313550Y177750D02*Y173250D01*
Y177750D02*X314300Y178500D01*
X315800D01*
X316550Y177750D01*
Y173250D01*
X315800Y172500D02*X316550Y173250D01*
X314300Y172500D02*X315800D01*
X313550Y174000D02*X316550Y177000D01*
X318350Y177750D02*X319100Y178500D01*
X321350D01*
X322100Y177750D01*
Y176250D01*
X318350Y172500D02*X322100Y176250D01*
X318350Y172500D02*X322100D01*
X323900Y177300D02*X325100Y178500D01*
Y172500D01*
X323900D02*X326150D01*
X330650Y178500D02*Y173250D01*
X331400Y172500D01*
X332900D01*
X333650Y173250D01*
Y178500D02*Y173250D01*
X335450Y178500D02*X338450D01*
X336950D02*Y172500D01*
X341300D02*X343250D01*
X340250Y173550D02*X341300Y172500D01*
X340250Y177450D02*Y173550D01*
Y177450D02*X341300Y178500D01*
X343250D01*
X200000Y192000D02*Y187500D01*
Y192000D02*X201050Y193500D01*
X202700D01*
X203750Y192000D01*
Y187500D01*
X200000Y190500D02*X203750D01*
X205550D02*Y188250D01*
X206300Y187500D01*
X207800D01*
X208550Y188250D01*
Y190500D02*Y188250D01*
X211100Y193500D02*Y188250D01*
X211850Y187500D01*
X210350Y191250D02*X211850D01*
X213350Y193500D02*Y187500D01*
Y189750D02*X214100Y190500D01*
X215600D01*
X216350Y189750D01*
Y187500D01*
X218150Y189750D02*Y188250D01*
Y189750D02*X218900Y190500D01*
X220400D01*
X221150Y189750D01*
Y188250D01*
X220400Y187500D02*X221150Y188250D01*
X218900Y187500D02*X220400D01*
X218150Y188250D02*X218900Y187500D01*
X223700Y189750D02*Y187500D01*
Y189750D02*X224450Y190500D01*
X225950D01*
X222950D02*X223700Y189750D01*
X227750Y191250D02*X228500D01*
X227750Y189750D02*X228500D01*
X234050Y187500D02*X236000D01*
X233000Y188550D02*X234050Y187500D01*
X233000Y192450D02*Y188550D01*
Y192450D02*X234050Y193500D01*
X236000D01*
X237800D02*Y187500D01*
Y189750D02*X238550Y190500D01*
X240050D01*
X240800Y189750D01*
Y187500D01*
X243350Y189750D02*Y187500D01*
Y189750D02*X244100Y190500D01*
X245600D01*
X242600D02*X243350Y189750D01*
G54D59*X247400Y192000D02*Y191850D01*
G54D58*Y189750D02*Y187500D01*
X249650D02*X251900D01*
X252650Y188250D01*
X251900Y189000D02*X252650Y188250D01*
X249650Y189000D02*X251900D01*
X248900Y189750D02*X249650Y189000D01*
X248900Y189750D02*X249650Y190500D01*
X251900D01*
X252650Y189750D01*
X248900Y188250D02*X249650Y187500D01*
X255200Y193500D02*Y188250D01*
X255950Y187500D01*
X254450Y191250D02*X255950D01*
X257450Y189750D02*Y188250D01*
Y189750D02*X258200Y190500D01*
X259700D01*
X260450Y189750D01*
Y188250D01*
X259700Y187500D02*X260450Y188250D01*
X258200Y187500D02*X259700D01*
X257450Y188250D02*X258200Y187500D01*
X263000Y189750D02*Y185250D01*
X262250Y190500D02*X263000Y189750D01*
X263750Y190500D01*
X265250D01*
X266000Y189750D01*
Y188250D01*
X265250Y187500D02*X266000Y188250D01*
X263750Y187500D02*X265250D01*
X263000Y188250D02*X263750Y187500D01*
X267800Y193500D02*Y187500D01*
Y189750D02*X268550Y190500D01*
X270050D01*
X270800Y189750D01*
Y187500D01*
X273350D02*X275600D01*
X272600Y188250D02*X273350Y187500D01*
X272600Y189750D02*Y188250D01*
Y189750D02*X273350Y190500D01*
X274850D01*
X275600Y189750D01*
X272600Y189000D02*X275600D01*
Y189750D02*Y189000D01*
X278150Y189750D02*Y187500D01*
Y189750D02*X278900Y190500D01*
X280400D01*
X277400D02*X278150Y189750D01*
X284900Y193500D02*X287900D01*
X286400D02*Y187500D01*
X289700Y193500D02*Y187500D01*
Y189750D02*X290450Y190500D01*
X291950D01*
X292700Y189750D01*
Y187500D01*
X294500Y189750D02*Y188250D01*
Y189750D02*X295250Y190500D01*
X296750D01*
X297500Y189750D01*
Y188250D01*
X296750Y187500D02*X297500Y188250D01*
X295250Y187500D02*X296750D01*
X294500Y188250D02*X295250Y187500D01*
X300050Y189750D02*Y187500D01*
Y189750D02*X300800Y190500D01*
X301550D01*
X302300Y189750D01*
Y187500D01*
Y189750D02*X303050Y190500D01*
X303800D01*
X304550Y189750D01*
Y187500D01*
X299300Y190500D02*X300050Y189750D01*
X308600Y190500D02*X309350Y189750D01*
X307100Y190500D02*X308600D01*
X306350Y189750D02*X307100Y190500D01*
X306350Y189750D02*Y188250D01*
X307100Y187500D01*
X309350Y190500D02*Y188250D01*
X310100Y187500D01*
X307100D02*X308600D01*
X309350Y188250D01*
X312650Y187500D02*X314900D01*
X315650Y188250D01*
X314900Y189000D02*X315650Y188250D01*
X312650Y189000D02*X314900D01*
X311900Y189750D02*X312650Y189000D01*
X311900Y189750D02*X312650Y190500D01*
X314900D01*
X315650Y189750D01*
X311900Y188250D02*X312650Y187500D01*
X200000Y208500D02*X203000D01*
X201500D02*Y202500D01*
G54D59*X204800Y207000D02*Y206850D01*
G54D58*Y204750D02*Y202500D01*
X207050Y208500D02*Y203250D01*
X207800Y202500D01*
X206300Y206250D02*X207800D01*
X209300Y208500D02*Y203250D01*
X210050Y202500D01*
X212300D02*X214550D01*
X211550Y203250D02*X212300Y202500D01*
X211550Y204750D02*Y203250D01*
Y204750D02*X212300Y205500D01*
X213800D01*
X214550Y204750D01*
X211550Y204000D02*X214550D01*
Y204750D02*Y204000D01*
X216350Y206250D02*X217100D01*
X216350Y204750D02*X217100D01*
X221600Y203250D02*X222350Y202500D01*
X221600Y207750D02*X222350Y208500D01*
X221600Y207750D02*Y203250D01*
X224150Y205500D02*Y203250D01*
X224900Y202500D01*
X226400D01*
X227150Y203250D01*
Y205500D02*Y203250D01*
X229700Y204750D02*Y202500D01*
Y204750D02*X230450Y205500D01*
X231200D01*
X231950Y204750D01*
Y202500D01*
X228950Y205500D02*X229700Y204750D01*
X233750Y208500D02*Y202500D01*
Y204750D02*X236000Y202500D01*
X233750Y204750D02*X235250Y206250D01*
X238550Y204750D02*Y202500D01*
Y204750D02*X239300Y205500D01*
X240050D01*
X240800Y204750D01*
Y202500D01*
X237800Y205500D02*X238550Y204750D01*
X242600D02*Y203250D01*
Y204750D02*X243350Y205500D01*
X244850D01*
X245600Y204750D01*
Y203250D01*
X244850Y202500D02*X245600Y203250D01*
X243350Y202500D02*X244850D01*
X242600Y203250D02*X243350Y202500D01*
X247400Y205500D02*Y203250D01*
X248150Y202500D01*
X248900D01*
X249650Y203250D01*
Y205500D02*Y203250D01*
X250400Y202500D01*
X251150D01*
X251900Y203250D01*
Y205500D02*Y203250D01*
X254450Y204750D02*Y202500D01*
Y204750D02*X255200Y205500D01*
X255950D01*
X256700Y204750D01*
Y202500D01*
X253700Y205500D02*X254450Y204750D01*
X258500Y208500D02*X259250Y207750D01*
Y203250D01*
X258500Y202500D02*X259250Y203250D01*
X263750Y205500D02*X266750D01*
X271250Y208500D02*Y202500D01*
Y208500D02*X274250D01*
X271250Y205800D02*X273500D01*
X278300Y205500D02*X279050Y204750D01*
X276800Y205500D02*X278300D01*
X276050Y204750D02*X276800Y205500D01*
X276050Y204750D02*Y203250D01*
X276800Y202500D01*
X279050Y205500D02*Y203250D01*
X279800Y202500D01*
X276800D02*X278300D01*
X279050Y203250D01*
X281600Y208500D02*Y202500D01*
Y203250D02*X282350Y202500D01*
X283850D01*
X284600Y203250D01*
Y204750D02*Y203250D01*
X283850Y205500D02*X284600Y204750D01*
X282350Y205500D02*X283850D01*
X281600Y204750D02*X282350Y205500D01*
X287150Y204750D02*Y202500D01*
Y204750D02*X287900Y205500D01*
X289400D01*
X286400D02*X287150Y204750D01*
G54D59*X291200Y207000D02*Y206850D01*
G54D58*Y204750D02*Y202500D01*
X293450Y205500D02*X295700D01*
X292700Y204750D02*X293450Y205500D01*
X292700Y204750D02*Y203250D01*
X293450Y202500D01*
X295700D01*
X299750Y205500D02*X300500Y204750D01*
X298250Y205500D02*X299750D01*
X297500Y204750D02*X298250Y205500D01*
X297500Y204750D02*Y203250D01*
X298250Y202500D01*
X300500Y205500D02*Y203250D01*
X301250Y202500D01*
X298250D02*X299750D01*
X300500Y203250D01*
X303800Y208500D02*Y203250D01*
X304550Y202500D01*
X303050Y206250D02*X304550D01*
G54D59*X306050Y207000D02*Y206850D01*
G54D58*Y204750D02*Y202500D01*
X307550Y204750D02*Y203250D01*
Y204750D02*X308300Y205500D01*
X309800D01*
X310550Y204750D01*
Y203250D01*
X309800Y202500D02*X310550Y203250D01*
X308300Y202500D02*X309800D01*
X307550Y203250D02*X308300Y202500D01*
X313100Y204750D02*Y202500D01*
Y204750D02*X313850Y205500D01*
X314600D01*
X315350Y204750D01*
Y202500D01*
X312350Y205500D02*X313100Y204750D01*
X320600Y208500D02*Y202500D01*
X322550Y208500D02*X323600Y207450D01*
Y203550D01*
X322550Y202500D02*X323600Y203550D01*
X319850Y202500D02*X322550D01*
X319850Y208500D02*X322550D01*
X326150Y204750D02*Y202500D01*
Y204750D02*X326900Y205500D01*
X328400D01*
X325400D02*X326150Y204750D01*
X332450Y205500D02*X333200Y204750D01*
X330950Y205500D02*X332450D01*
X330200Y204750D02*X330950Y205500D01*
X330200Y204750D02*Y203250D01*
X330950Y202500D01*
X333200Y205500D02*Y203250D01*
X333950Y202500D01*
X330950D02*X332450D01*
X333200Y203250D01*
X335750Y205500D02*Y203250D01*
X336500Y202500D01*
X337250D01*
X338000Y203250D01*
Y205500D02*Y203250D01*
X338750Y202500D01*
X339500D01*
X340250Y203250D01*
Y205500D02*Y203250D01*
G54D59*X342050Y207000D02*Y206850D01*
G54D58*Y204750D02*Y202500D01*
X344300Y204750D02*Y202500D01*
Y204750D02*X345050Y205500D01*
X345800D01*
X346550Y204750D01*
Y202500D01*
X343550Y205500D02*X344300Y204750D01*
X350600Y205500D02*X351350Y204750D01*
X349100Y205500D02*X350600D01*
X348350Y204750D02*X349100Y205500D01*
X348350Y204750D02*Y203250D01*
X349100Y202500D01*
X350600D01*
X351350Y203250D01*
X348350Y201000D02*X349100Y200250D01*
X350600D01*
X351350Y201000D01*
Y205500D02*Y201000D01*
M02*
