G04 start of page 10 for group -4015 idx -4015 *
G04 Title: (unknown), toppaste *
G04 Creator: pcb 4.2.2 *
G04 CreationDate: Tue May 11 21:17:39 2021 UTC *
G04 For: thomasc *
G04 Format: Gerber/RS-274X *
G04 PCB-Dimensions (mil): 5250.00 1500.00 *
G04 PCB-Coordinate-Origin: lower left *
%MOIN*%
%FSLAX25Y25*%
%LNTOPPASTE*%
%ADD55C,0.0001*%
G54D55*G36*
X202500Y122500D02*X197500D01*
Y114500D01*
X202500D01*
Y122500D01*
G37*
G36*
Y110500D02*X197500D01*
Y102500D01*
X202500D01*
Y110500D01*
G37*
G36*
X127500Y122500D02*X122500D01*
Y114500D01*
X127500D01*
Y122500D01*
G37*
G36*
Y110500D02*X122500D01*
Y102500D01*
X127500D01*
Y110500D01*
G37*
G36*
X52500Y122500D02*X47500D01*
Y114500D01*
X52500D01*
Y122500D01*
G37*
G36*
Y110500D02*X47500D01*
Y102500D01*
X52500D01*
Y110500D01*
G37*
G36*
X227500Y122500D02*X222500D01*
Y114500D01*
X227500D01*
Y122500D01*
G37*
G36*
Y110500D02*X222500D01*
Y102500D01*
X227500D01*
Y110500D01*
G37*
G36*
X152500Y122500D02*X147500D01*
Y114500D01*
X152500D01*
Y122500D01*
G37*
G36*
Y110500D02*X147500D01*
Y102500D01*
X152500D01*
Y110500D01*
G37*
G36*
X77500Y122500D02*X72500D01*
Y114500D01*
X77500D01*
Y122500D01*
G37*
G36*
Y110500D02*X72500D01*
Y102500D01*
X77500D01*
Y110500D01*
G37*
G36*
X62500D02*X57500D01*
Y102500D01*
X62500D01*
Y110500D01*
G37*
G36*
Y122500D02*X57500D01*
Y114500D01*
X62500D01*
Y122500D01*
G37*
G36*
X87500Y110500D02*X82500D01*
Y102500D01*
X87500D01*
Y110500D01*
G37*
G36*
Y122500D02*X82500D01*
Y114500D01*
X87500D01*
Y122500D01*
G37*
G36*
X117500Y110500D02*X112500D01*
Y102500D01*
X117500D01*
Y110500D01*
G37*
G36*
Y122500D02*X112500D01*
Y114500D01*
X117500D01*
Y122500D01*
G37*
G36*
X142500Y110500D02*X137500D01*
Y102500D01*
X142500D01*
Y110500D01*
G37*
G36*
Y122500D02*X137500D01*
Y114500D01*
X142500D01*
Y122500D01*
G37*
G36*
X217500Y110500D02*X212500D01*
Y102500D01*
X217500D01*
Y110500D01*
G37*
G36*
Y122500D02*X212500D01*
Y114500D01*
X217500D01*
Y122500D01*
G37*
G36*
X192500Y110500D02*X187500D01*
Y102500D01*
X192500D01*
Y110500D01*
G37*
G36*
Y122500D02*X187500D01*
Y114500D01*
X192500D01*
Y122500D01*
G37*
G36*
X503000Y75500D02*X497000D01*
Y67000D01*
X503000D01*
Y75500D01*
G37*
G36*
Y58000D02*X497000D01*
Y49500D01*
X503000D01*
Y58000D01*
G37*
G36*
X488000Y64500D02*Y60500D01*
X494500D01*
Y64500D01*
X488000D01*
G37*
G36*
X490000Y102500D02*Y97500D01*
X498000D01*
Y102500D01*
X490000D01*
G37*
G36*
X502000D02*Y97500D01*
X510000D01*
Y102500D01*
X502000D01*
G37*
G36*
X490000Y92500D02*Y87500D01*
X498000D01*
Y92500D01*
X490000D01*
G37*
G36*
X502000D02*Y87500D01*
X510000D01*
Y92500D01*
X502000D01*
G37*
M02*
