G04 start of page 9 for group -4078 idx -4078 *
G04 Title: (unknown), bottomsilk *
G04 Creator: pcb 4.2.2 *
G04 CreationDate: Tue May 11 21:17:39 2021 UTC *
G04 For: thomasc *
G04 Format: Gerber/RS-274X *
G04 PCB-Dimensions (mil): 5250.00 1500.00 *
G04 PCB-Coordinate-Origin: lower left *
%MOIN*%
%FSLAX25Y25*%
%LNBOTTOMSILK*%
%ADD54C,0.0150*%
%ADD53C,0.0100*%
G54D53*X267500Y46500D02*X268000Y46000D01*
X269500D01*
X270000Y46500D01*
Y47500D01*
X267500Y50000D02*X270000Y47500D01*
X267500Y50000D02*X270000D01*
X271200Y46500D02*X271700Y46000D01*
X273200D01*
X273700Y46500D01*
Y47500D01*
X271200Y50000D02*X273700Y47500D01*
X271200Y50000D02*X273700D01*
X274900Y46000D02*Y50000D01*
Y48500D02*X276400Y50000D01*
X274900Y48500D02*X275900Y47500D01*
X267500Y81500D02*X268000Y81000D01*
X269500D01*
X270000Y81500D01*
Y82500D01*
X267500Y85000D02*X270000Y82500D01*
X267500Y85000D02*X270000D01*
X271200Y81500D02*X271700Y81000D01*
X273200D01*
X273700Y81500D01*
Y82500D01*
X271200Y85000D02*X273700Y82500D01*
X271200Y85000D02*X273700D01*
X274900Y81000D02*Y85000D01*
Y83500D02*X276400Y85000D01*
X274900Y83500D02*X275900Y82500D01*
X342500Y46500D02*X343000Y46000D01*
X344500D01*
X345000Y46500D01*
Y47500D01*
X342500Y50000D02*X345000Y47500D01*
X342500Y50000D02*X345000D01*
X346200Y46500D02*X346700Y46000D01*
X348200D01*
X348700Y46500D01*
Y47500D01*
X346200Y50000D02*X348700Y47500D01*
X346200Y50000D02*X348700D01*
X349900Y46000D02*Y50000D01*
Y48500D02*X351400Y50000D01*
X349900Y48500D02*X350900Y47500D01*
X342500Y81500D02*X343000Y81000D01*
X344500D01*
X345000Y81500D01*
Y82500D01*
X342500Y85000D02*X345000Y82500D01*
X342500Y85000D02*X345000D01*
X346200Y81500D02*X346700Y81000D01*
X348200D01*
X348700Y81500D01*
Y82500D01*
X346200Y85000D02*X348700Y82500D01*
X346200Y85000D02*X348700D01*
X349900Y81000D02*Y85000D01*
Y83500D02*X351400Y85000D01*
X349900Y83500D02*X350900Y82500D01*
X417500Y46500D02*X418000Y46000D01*
X419500D01*
X420000Y46500D01*
Y47500D01*
X417500Y50000D02*X420000Y47500D01*
X417500Y50000D02*X420000D01*
X421200Y46500D02*X421700Y46000D01*
X423200D01*
X423700Y46500D01*
Y47500D01*
X421200Y50000D02*X423700Y47500D01*
X421200Y50000D02*X423700D01*
X424900Y46000D02*Y50000D01*
Y48500D02*X426400Y50000D01*
X424900Y48500D02*X425900Y47500D01*
X417500Y81500D02*X418000Y81000D01*
X419500D01*
X420000Y81500D01*
Y82500D01*
X417500Y85000D02*X420000Y82500D01*
X417500Y85000D02*X420000D01*
X421200Y81500D02*X421700Y81000D01*
X423200D01*
X423700Y81500D01*
Y82500D01*
X421200Y85000D02*X423700Y82500D01*
X421200Y85000D02*X423700D01*
X424900Y81000D02*Y85000D01*
Y83500D02*X426400Y85000D01*
X424900Y83500D02*X425900Y82500D01*
X152500Y45000D02*X157500D01*
Y35000D01*
X155000Y40000D02*X157500D01*
G54D54*X160000Y15000D02*X180000D01*
X160000Y115000D02*X180000D01*
G54D53*X156000Y113000D02*X160000D01*
G54D54*Y115000D02*Y15000D01*
G54D53*X156000Y113000D02*Y109000D01*
G54D54*X180000Y115000D02*Y15000D01*
G54D53*X156000Y109000D02*X160000D01*
X156000Y55000D02*X160000D01*
X156000Y75000D02*X160000D01*
X156000Y74500D02*Y55000D01*
X440000Y62500D02*Y37500D01*
X430000Y62500D02*X440000D01*
X430000D02*Y37500D01*
X440000D01*
Y87500D02*Y62500D01*
X430000Y87500D02*X440000D01*
X430000D02*Y62500D01*
X440000D01*
X290000D02*Y37500D01*
X280000Y62500D02*X290000D01*
X280000D02*Y37500D01*
X290000D01*
Y87500D02*Y62500D01*
X280000Y87500D02*X290000D01*
X280000D02*Y62500D01*
X290000D01*
X365000D02*Y37500D01*
X355000Y62500D02*X365000D01*
X355000D02*Y37500D01*
X365000D01*
Y87500D02*Y62500D01*
X355000Y87500D02*X365000D01*
X355000D02*Y62500D01*
X365000D01*
M02*
