M48
INCH
T40C0.028
T39C0.125
T38C0.136
T37C0.073
T36C0.042
%
T40
X009250Y014250
X009250Y013250
X010000Y011250
X013250Y013000
X017750Y012750
X018750Y006250
X024000Y010000
X027500Y007250
X030000Y014250
X032500Y013750
X035000Y007250
X037500Y013250
X040000Y012750
X042500Y007250
X045000Y012250
X047500Y011750
X048500Y008000
T36
X006250Y006500
X006250Y005500
X006250Y004500
X006250Y003500
X013750Y006500
X013750Y005500
X013750Y004500
X013750Y003500
X016500Y011000
X016500Y010000
X016500Y009000
X016500Y008000
X016500Y007000
X016500Y006000
X016500Y005000
X016500Y004000
X016500Y003000
X016500Y002000
X017500Y011000
X017500Y010000
X017500Y009000
X017500Y008000
X017500Y007000
X017500Y006000
X017500Y005000
X017500Y004000
X017500Y003000
X017500Y002000
X021250Y006500
X021250Y005500
X021250Y004500
X021250Y003500
T37
X028750Y010000
X028750Y002500
X030000Y008100
X030000Y006250
X030000Y004400
X031250Y010000
X031250Y002500
X036250Y010000
X036250Y002500
X037500Y008100
X037500Y006250
X037500Y004400
X038750Y010000
X038750Y002500
X043750Y010000
X043750Y002500
X045000Y008100
X045000Y006250
X045000Y004400
X046250Y010000
X046250Y002500
T39
X002500Y012500
X002500Y002500
X025000Y012500
X025000Y002500
X050000Y012500
X050000Y002500
T38
X005950Y008100
X005950Y001900
X013450Y008100
X013450Y001900
X020950Y008100
X020950Y001900
M30
