G04 start of page 3 for group 5 idx 5 *
G04 Title: (unknown), bottom *
G04 Creator: pcb 4.2.2 *
G04 CreationDate: Tue May 11 21:17:39 2021 UTC *
G04 For: thomasc *
G04 Format: Gerber/RS-274X *
G04 PCB-Dimensions (mil): 5250.00 1500.00 *
G04 PCB-Coordinate-Origin: lower left *
%MOIN*%
%FSLAX25Y25*%
%LNBOTTOM*%
%ADD34C,0.1250*%
%ADD33C,0.1360*%
%ADD32C,0.0730*%
%ADD31C,0.0420*%
%ADD30C,0.0280*%
%ADD29C,0.0500*%
%ADD28C,0.2000*%
%ADD27C,0.1700*%
%ADD26C,0.0001*%
%ADD25C,0.1100*%
%ADD24C,0.0700*%
%ADD23C,0.0100*%
G54D23*X300000Y44000D02*X285000D01*
Y56000D02*Y69000D01*
X300000Y81000D02*X285000D01*
X275000Y72500D02*X280000Y67500D01*
X285000D01*
X175000Y70000D02*X170000Y65000D01*
X175000Y60000D02*X170000Y55000D01*
X180000Y5000D02*X267500D01*
X275000Y12500D01*
X175000Y30000D02*X187500Y42500D01*
Y60000D01*
X170000Y65000D02*X137500D01*
X165000Y60000D02*X150000D01*
X170000Y55000D02*X155000D01*
X170000Y85000D02*X192500D01*
X202500Y95000D01*
X235000D01*
X240000Y100000D01*
X450000Y44000D02*X435000D01*
X450000Y81000D02*X435000D01*
Y56000D02*Y69000D01*
X375000Y44000D02*X360000D01*
Y56000D02*Y69000D01*
X375000Y81000D02*X360000D01*
X350000Y72500D02*X355000Y67500D01*
X360000D01*
X425000Y72500D02*X430000Y67500D01*
X435000D01*
X477500Y62500D02*X485000Y70000D01*
Y80000D01*
X400000Y69000D02*X375000Y44000D01*
X275000Y12500D02*X470000D01*
X477500Y20000D01*
Y62500D01*
X450000Y122500D02*Y81000D01*
X475000Y117500D02*Y69000D01*
X450000Y44000D01*
X300000Y142500D02*Y81000D01*
X325000Y137500D02*Y69000D01*
X300000Y44000D01*
X375000Y132500D02*Y81000D01*
X400000Y127500D02*Y69000D01*
X150000Y60000D02*X145000Y55000D01*
X137500D01*
X155000D02*X145000Y45000D01*
X137500D01*
X165000Y20000D02*X180000Y5000D01*
X165000Y110000D02*Y122500D01*
X150000Y137500D01*
X175000Y110000D02*Y117500D01*
X150000Y142500D01*
X182500Y97500D02*Y122500D01*
X177500Y127500D01*
X92500Y142500D02*X150000D01*
X92500Y132500D02*X97500Y137500D01*
X150000D01*
X165000Y100000D02*X147500D01*
X175000D02*X170000Y95000D01*
X117500D01*
X175000Y90000D02*X182500Y97500D01*
X165000Y90000D02*X170000Y85000D01*
X147500Y100000D02*X132500Y115000D01*
X117500Y95000D02*X100000Y112500D01*
X132500Y115000D02*Y130000D01*
G54D24*X62500Y45000D03*
X137500D03*
G54D25*X450000Y44000D03*
X375000D03*
X300000D03*
X287500Y25000D03*
X300000Y62500D03*
Y81000D03*
G54D26*G36*
X59000Y68500D02*Y61500D01*
X66000D01*
Y68500D01*
X59000D01*
G37*
G54D27*X59500Y81000D03*
G54D28*X25000Y125000D03*
G54D24*X62500Y55000D03*
G54D26*G36*
X134000Y68500D02*Y61500D01*
X141000D01*
Y68500D01*
X134000D01*
G37*
G54D24*X137500Y55000D03*
G54D27*X134500Y81000D03*
G54D24*X62500Y35000D03*
X137500D03*
X175000Y110000D03*
G54D26*G36*
X161500Y113500D02*Y106500D01*
X168500D01*
Y113500D01*
X161500D01*
G37*
G54D24*X165000Y100000D03*
Y90000D03*
X175000Y100000D03*
Y90000D03*
G54D25*X462500Y100000D03*
X437500D03*
X450000Y62500D03*
Y81000D03*
X387500Y100000D03*
X362500D03*
X312500D03*
X287500D03*
X375000Y62500D03*
Y81000D03*
X462500Y25000D03*
X437500D03*
X387500D03*
X362500D03*
X312500D03*
G54D28*X500000Y125000D03*
Y25000D03*
G54D27*X59500Y19000D03*
X134500D03*
G54D24*X175000Y80000D03*
X165000D03*
X175000Y70000D03*
X165000D03*
X175000Y60000D03*
X165000D03*
Y20000D03*
G54D28*X25000Y25000D03*
G54D26*G36*
X209000Y68500D02*Y61500D01*
X216000D01*
Y68500D01*
X209000D01*
G37*
G54D24*X212500Y55000D03*
Y45000D03*
Y35000D03*
G54D27*X209500Y19000D03*
Y81000D03*
G54D24*X175000Y50000D03*
X165000D03*
X175000Y40000D03*
X165000D03*
X175000Y30000D03*
X165000D03*
X175000Y20000D03*
G54D28*X250000Y125000D03*
Y25000D03*
G54D26*G36*
X287500Y85000D02*X282500D01*
Y77000D01*
X287500D01*
Y85000D01*
G37*
G36*
X362500D02*X357500D01*
Y77000D01*
X362500D01*
Y85000D01*
G37*
G36*
X287500Y48000D02*X282500D01*
Y40000D01*
X287500D01*
Y48000D01*
G37*
G36*
X362500D02*X357500D01*
Y40000D01*
X362500D01*
Y48000D01*
G37*
G36*
X437500D02*X432500D01*
Y40000D01*
X437500D01*
Y48000D01*
G37*
G36*
X287500Y60000D02*X282500D01*
Y52000D01*
X287500D01*
Y60000D01*
G37*
G36*
X362500D02*X357500D01*
Y52000D01*
X362500D01*
Y60000D01*
G37*
G36*
X437500D02*X432500D01*
Y52000D01*
X437500D01*
Y60000D01*
G37*
G36*
X287500Y73000D02*X282500D01*
Y65000D01*
X287500D01*
Y73000D01*
G37*
G36*
X362500D02*X357500D01*
Y65000D01*
X362500D01*
Y73000D01*
G37*
G36*
X437500D02*X432500D01*
Y65000D01*
X437500D01*
Y73000D01*
G37*
G36*
Y85000D02*X432500D01*
Y77000D01*
X437500D01*
Y85000D01*
G37*
G54D29*X187500Y62500D03*
X92500Y132500D03*
Y142500D03*
X132500Y130000D03*
X100000Y112500D03*
X177500Y127500D03*
X275000Y72500D03*
X300000Y142500D03*
X325000Y137500D03*
X350000Y72500D03*
X425000D03*
X375000Y132500D03*
X400000Y127500D03*
X450000Y122500D03*
X240000Y100000D03*
X475000Y117500D03*
X485000Y80000D03*
G54D30*G54D31*G54D32*G54D31*G54D33*G54D34*G54D31*G54D33*G54D31*G54D32*G54D34*G54D33*G54D31*G54D34*G54D31*G54D33*G54D31*G54D34*M02*
